# xmcd CD Database Entry
#
# Track frame offsets:
# 150
# 11153
# 25825
# 34716
# 51969
# 68674
# 78040
# 84082
# 91015
# 99464
# 112442
# 124652
#
# Disc length: 1922 seconds
#
# Revision: 1
# Processed by: cddbd v1.5PL3 Copyright (c) Steve Scherf et al.
# Submitted via: tcd 2.0b
#
DISCID=8907800c
DTITLE=Swissfarlo/Boxed
DYEAR=1900
DGENRE=
TTITLE0=Oh No
TTITLE1=Lines
TTITLE2=Proline
TTITLE3=Her Lifes Been Copied
TTITLE4=Cans For Money
TTITLE5=Roman Candle
TTITLE6=And I Digress
TTITLE7=Yr Mine
TTITLE8=Simple Faults
TTITLE9=Expect Finer
TTITLE10=Coil
TTITLE11=2nd or 3rd
EXTD=2002\n(c) DataWasLost dwl.036\n
EXTT0=
EXTT1=
EXTT2=
EXTT3=
EXTT4=
EXTT5=
EXTT6=
EXTT7=
EXTT8=
EXTT9=
EXTT10=
EXTT11=
PLAYORDER=
